<?xml version="1.0" standalone="no"?>
<!DOCTYPE svg PUBLIC "-//W3C//DTD SVG 20010904//EN"
 "http://www.w3.org/TR/2001/REC-SVG-20010904/DTD/svg10.dtd">
<svg version="1.0" xmlns="http://www.w3.org/2000/svg"
 width="260.000000pt" height="260.000000pt" viewBox="0 0 260.000000 260.000000"
 preserveAspectRatio="xMidYMid meet">
<metadata>
Created by potrace 1.11, written by Peter Selinger 2001-2013
</metadata>
<g transform="translate(0.000000,260.000000) scale(0.100000,-0.100000)"
fill="#000000" stroke="none">
<path d="M40 1305 l0 -1255 688 0 687 0 -1 558 c0 306 1 562 3 567 2 7 197 10
568 10 l565 0 0 687 0 688 -1255 0 -1255 0 0 -1255z m2388 568 l-3 -568 -555
0 c-305 0 -560 -3 -565 -7 -7 -4 -10 -196 -9 -555 0 -301 -2 -554 -4 -560 -3
-10 -126 -13 -568 -13 l-564 0 0 1135 0 1135 1135 0 1135 0 -2 -567z"/>
</g>
</svg>
